<svg xmlns="http://www.w3.org/2000/svg" width="107.6" height="40.69" viewBox="0 0 28.469 10.766">
  <g fill="#cc1010">
    <g aria-label="strikkes" style="line-height:1.25" font-weight="400" font-size="10.583" font-family="Sacramento" stroke-width=".265">
      <path d="M.692 6.3q-.031.083-.078.186-.04.103-.098.217-.046.088-.098.14-.046.046-.124.046-.088 0-.14-.052-.051-.056-.051-.129 0-.026.005-.041.005-.02.026-.062.134-.258.196-.45.067-.196.109-.408-.036-.119-.052-.201-.015-.083-.015-.17 0-.171.072-.275.072-.108.201-.108.12 0 .186.103.073.103.073.253 0 .083-.016.166-.015.082-.041.206.119.295.238.522.119.228.212.419.093.186.15.351.061.166.061.33 0 .218-.087.414-.088.197-.29.331.026.005.052.005h.052q.294 0 .542-.134.248-.135.445-.346.201-.217.356-.476.155-.263.269-.522.051-.119.144-.119.088 0 .135.062.052.062.052.135 0 .041-.016.077-.057.14-.15.32-.088.176-.217.368-.124.186-.29.366-.165.181-.371.326-.202.14-.445.222-.243.088-.532.088-.346 0-.646-.124-.294-.119-.48-.398Q0 7.892 0 7.84q0-.078.056-.134.062-.062.14-.062.083 0 .14.056.005.01.036.037.03.02.072.051.046.026.103.047.062.02.124.02.124 0 .207-.051.088-.052.14-.124.051-.078.072-.16.026-.088.026-.15 0-.13-.042-.259-.041-.129-.108-.258-.062-.13-.14-.264Q.754 6.45.692 6.3z" style="-inkscape-font-specification:Sacramento"/>
      <path d="M6.991 3.04q0 .082-.057.134-.057.046-.14.046h-2.62v.057q0 .315-.046.672-.046.356-.129.713-.077.351-.18.687-.099.336-.207.62-.104.285-.207.496-.103.207-.186.31.067.238.16.445.093.201.207.356.119.15.253.238t.29.088q.18 0 .356-.15.18-.155.33-.362.156-.211.27-.423.118-.217.17-.347.052-.124.18-.124.089 0 .14.062.057.062.057.135 0 .036-.015.072l-.078.165q-.057.13-.155.3-.093.17-.222.362-.124.186-.284.341-.155.155-.336.258-.181.104-.383.104-.356 0-.64-.233-.285-.232-.486-.651-.197-.419-.3-.992-.103-.574-.103-1.256 0-.17.005-.398.005-.232.02-.485.016-.259.047-.528.031-.273.083-.532H.93q-.083 0-.14-.046-.057-.052-.057-.135 0-.082.057-.129.057-.052.14-.052h1.943q.051-.186.118-.34.073-.156.16-.27.094-.113.202-.175.114-.067.248-.067.13 0 .222.067.099.062.166.176.067.113.103.268.041.155.062.341h2.64q.083 0 .14.052.057.047.057.13zM3.1 6.258q.155-.341.279-.734.13-.398.217-.801.093-.403.14-.79.051-.388.051-.714h-.61q-.072.32-.118.796-.042.47-.042 1.147 0 .377.021.636.02.253.062.46zm.48-3.866q-.046 0-.134.104-.088.098-.175.361h.496q-.026-.217-.078-.34-.046-.125-.108-.125zm-.397 4.238v.005z" style="-inkscape-font-specification:Sacramento"/>
      <path d="M5.828 6.088q-.02.14-.051.264-.031.119-.062.212-.026.087-.047.144-.02.057-.026.062-.051.12-.18.12-.073 0-.135-.053-.062-.056-.062-.14 0-.03.01-.046.01-.015.032-.062.02-.046.051-.155.031-.108.078-.335-.088 0-.181-.006-.093-.005-.17-.036-.083-.03-.135-.098-.052-.067-.052-.186 0-.088.052-.238.046-.15.13-.294.082-.145.185-.248.104-.109.207-.109.119 0 .191.088.078.088.119.217.041.124.057.264.02.14.02.242h.171q.088-.005.165-.005.295 0 .45.13.155.129.155.423 0 .119-.016.248-.015.13-.036.269-.02.134-.036.269-.015.134-.015.263 0 .186.051.31.052.12.13.191.077.073.165.104.088.026.16.026.222 0 .419-.145.196-.145.361-.346.166-.207.295-.434.134-.228.222-.398.026-.047.072-.073.047-.025.099-.025.093 0 .144.062.052.056.052.129 0 .051-.02.093-.12.212-.28.48-.155.264-.356.496-.202.233-.455.393-.248.16-.548.16-.186 0-.351-.072-.166-.067-.29-.196-.118-.135-.19-.326-.073-.196-.073-.44 0-.258.052-.51.051-.26.051-.492 0-.098-.046-.144-.042-.052-.192-.052h-.16q-.082 0-.18.005zm-.346-.382q0-.036-.005-.093 0-.062-.01-.12-.005-.056-.021-.097-.01-.042-.026-.042-.015 0-.041.042-.02.036-.047.093-.025.051-.046.113-.02.062-.031.104z" style="-inkscape-font-specification:Sacramento"/>
      <path d="M9.332 4.156q0 .196-.14.335-.134.135-.33.135-.197 0-.336-.135-.134-.14-.134-.335 0-.099.036-.181.036-.088.098-.15.067-.067.15-.104.088-.036.186-.036t.18.036q.088.037.15.104.068.062.104.15.036.082.036.18zm-.837 3.028q0-.744.093-1.483.01-.073.062-.124.057-.057.145-.057.077 0 .129.062.051.057.051.134 0 .031-.015.186-.01.155-.031.372-.016.212-.031.455-.01.238-.01.44 0 .273.051.444.057.165.14.258.088.093.18.124.099.031.187.031.144 0 .3-.103.154-.104.315-.29.165-.186.33-.444.166-.264.326-.584.026-.052.072-.078.047-.03.104-.03.082 0 .134.061.057.062.057.135 0 .051-.02.088l-.156.289q-.093.17-.212.351-.119.181-.263.362-.14.176-.3.32-.16.14-.336.228-.176.088-.357.088-.232 0-.408-.098-.175-.099-.3-.264-.118-.165-.18-.388-.057-.227-.057-.485zm.548-3.028q0-.073-.057-.124-.052-.057-.124-.057-.073 0-.124.057-.052.051-.052.124 0 .072.052.124.051.051.124.051.072 0 .124-.051.057-.052.057-.124z" style="-inkscape-font-specification:Sacramento"/>
      <path d="M12.024 7.576q.088.197.29.316.201.113.454.113.078 0 .254-.02.175-.026.403-.155.232-.135.49-.419.259-.284.502-.8.026-.058.072-.084.047-.03.103-.03.088 0 .14.061.057.062.057.135 0 .03-.02.082-.182.378-.404.677-.222.295-.48.507-.259.206-.543.315-.28.114-.574.114-.232 0-.439-.073-.201-.072-.351-.19-.145-.125-.233-.275-.082-.155-.082-.315 0-.02.005-.057.005-.036.026-.077.025-.047.067-.083.046-.041.124-.067.212-.062.387-.15.181-.093.31-.207.13-.113.202-.248.072-.14.072-.3 0-.139-.093-.227t-.227-.088q-.14 0-.274.099-.134.093-.264.253-.124.155-.237.361-.114.202-.212.424-.093.222-.165.445-.073.217-.12.403-.015.056-.036.124-.015.067-.051.124-.036.062-.088.098-.052.041-.134.041-.078 0-.15-.067-.073-.062-.073-.217v-.238q.006-.206.01-.537.006-.336.011-.765.01-.434.016-.915.005-.485.015-.997.01-.511.016-.997l.01-.92q.01-.44.015-.775.006-.341.006-.553l.005-.258q0-.083.062-.135.062-.057.134-.057.083 0 .14.057.057.052.057.14l-.006.206q0 .192-.005.517-.005.326-.015.76-.006.434-.016.925-.005.486-.015 1.002-.006.517-.016 1.008l-.01.935-.01.786q.082-.264.211-.553.13-.295.305-.543.176-.248.393-.408.222-.16.49-.16.15 0 .28.057.13.051.222.15.098.092.15.222.057.129.057.279 0 .232-.104.429-.103.19-.273.346-.171.15-.393.263-.217.114-.45.186z" style="-inkscape-font-specification:Sacramento"/>
      <path d="M15.724 7.576q.088.197.29.316.201.113.454.113.078 0 .253-.02.176-.026.404-.155.232-.135.49-.419.259-.284.502-.8.026-.058.072-.084.047-.03.103-.03.088 0 .14.061.057.062.057.135 0 .03-.02.082-.182.378-.404.677-.222.295-.48.507-.259.206-.543.315-.28.114-.574.114-.232 0-.439-.073-.202-.072-.351-.19-.145-.125-.233-.275-.083-.155-.083-.315 0-.02.006-.057.005-.036.025-.077.026-.047.068-.083.046-.041.124-.067.212-.062.387-.15.181-.093.31-.207.13-.113.202-.248.072-.14.072-.3 0-.139-.093-.227t-.227-.088q-.14 0-.274.099-.134.093-.264.253-.124.155-.237.361-.114.202-.212.424-.093.222-.166.445-.072.217-.118.403l-.037.124q-.015.067-.051.124-.036.062-.088.098-.052.041-.134.041-.078 0-.15-.067-.073-.062-.073-.217v-.238q.006-.206.01-.537.006-.336.011-.765.01-.434.015-.915.006-.485.016-.997.01-.511.015-.997l.01-.92q.011-.44.016-.775.005-.341.005-.553l.006-.258q0-.083.062-.135.062-.057.134-.057.083 0 .14.057.056.052.056.14l-.005.206q0 .192-.005.517-.005.326-.015.76-.006.434-.016.925-.005.486-.015 1.002-.006.517-.016 1.008l-.01.935-.01.786q.082-.264.211-.553.13-.295.305-.543.176-.248.393-.408.222-.16.49-.16.15 0 .28.057.129.051.222.15.098.092.15.222.057.129.057.279 0 .232-.104.429-.103.19-.274.346-.17.15-.392.263-.217.114-.45.186z" style="-inkscape-font-specification:Sacramento"/>
      <path d="M18.742 7.644q.108.15.279.242.17.088.419.088.253 0 .46-.119.206-.124.377-.32.17-.196.305-.44.134-.242.242-.485.026-.057.073-.083.046-.03.103-.03.088 0 .14.061.057.062.057.135 0 .026-.006.046-.005.016-.015.036-.357.786-.78 1.184-.419.398-.951.408-.341 0-.59-.134-.247-.13-.408-.336-.16-.212-.237-.476-.078-.263-.078-.527 0-.263.062-.485.067-.223.186-.388.124-.165.29-.258.17-.093.372-.093.118 0 .232.051.119.047.212.14.093.088.15.217.057.129.057.294 0 .212-.073.398-.072.186-.201.346-.124.16-.3.295-.176.134-.377.233zm-.155-.336q.16-.067.29-.17.134-.104.227-.228.093-.124.144-.259.052-.14.052-.279 0-.155-.077-.232-.078-.083-.181-.083-.14 0-.238.078-.098.077-.16.201-.062.124-.093.28-.026.15-.026.299 0 .093.015.196.021.104.047.197z" style="-inkscape-font-specification:Sacramento"/>
      <path d="M21.403 6.3q-.03.083-.077.186-.042.103-.098.217-.047.088-.099.14-.046.046-.124.046-.088 0-.14-.052-.05-.056-.05-.129 0-.026.004-.041.006-.02.026-.062.135-.258.197-.45.067-.196.108-.408-.036-.119-.052-.201-.015-.083-.015-.17 0-.171.072-.275.073-.108.202-.108.119 0 .186.103.072.103.072.253 0 .083-.015.166l-.042.206q.12.295.238.522.119.228.212.419.093.186.15.351.062.166.062.33 0 .218-.088.414-.088.197-.29.331.026.005.052.005h.052q.294 0 .542-.134.248-.135.445-.346.201-.217.356-.476.155-.263.27-.522.05-.119.144-.119.088 0 .134.062.052.062.052.135 0 .041-.016.077-.057.14-.15.32-.087.176-.217.368-.124.186-.289.366-.165.181-.372.326-.202.14-.444.222-.243.088-.533.088-.346 0-.646-.124-.294-.119-.48-.398-.031-.046-.031-.098 0-.078.057-.134.062-.062.14-.062.082 0 .139.056.005.01.036.037.03.02.072.051.047.026.104.047.062.02.124.02.124 0 .206-.051.088-.052.14-.124.051-.078.072-.16.026-.088.026-.15 0-.13-.041-.259-.042-.129-.109-.258-.062-.13-.14-.264-.072-.14-.134-.289z" style="-inkscape-font-specification:Sacramento"/>
    </g>
    <path d="M27.69.89a2.656 2.656 0 00-.5-.415 2.716 2.716 0 00-.653-.318c-.011-.012-.02-.016-.027-.014a2.815 2.815 0 00-1.786.005 2.835 2.835 0 00-.678 5.04c.202.133.418.24.64.322.01.004.025.006.034.01a2.893 2.893 0 00.599.135c.047.007.092.007.139.013-.058.072-.116.144-.154.232a.45.45 0 01-.604.204.804.804 0 00-1.075.363l-.28.566a.171.171 0 00.08.235c.058.017.11.015.15.001a.182.182 0 00.104-.088l.283-.559a.45.45 0 01.604-.204.804.804 0 001.075-.363.729.729 0 01.422-.367l.477-.16A2.834 2.834 0 0027.69.89zM25.859.362l-.215.118c-.052-.043-.097-.088-.146-.123a2.7 2.7 0 01.36.005zm-1.022.12c.074-.024.143-.04.22-.058a8.2 8.2 0 00.285.27 2.74 2.74 0 00-.275.227c-.137-.118-.263-.248-.389-.377.052-.025.105-.043.159-.061zm-.486.224c.145.161.302.318.464.465a4.04 4.04 0 00-.223.27A6.594 6.594 0 0124.06.91c.09-.067.185-.137.29-.203zm-.55.455c.18.201.381.396.586.58a4.287 4.287 0 00-.178.315 9.046 9.046 0 01-.633-.61 2.13 2.13 0 01.226-.285zm-.41.603c.208.214.428.424.66.623a3.079 3.079 0 00-.127.356 7.254 7.254 0 01-.67-.611c.038-.133.08-.252.138-.368zm.413 2.748a2.484 2.484 0 01-.524-.885l-.016-.047c.155.127.317.252.484.368.003.186.021.374.056.564zm-.647-1.494c-.01-.162-.01-.319.011-.476.212.206.432.393.666.576-.029.137-.05.272-.066.404a9.61 9.61 0 01-.611-.504zm1.323 2.014c-.072-.035-.139-.08-.204-.118-.29-.792-.211-1.777.216-2.639.427-.862 1.162-1.522 1.968-1.772.076.027.146.056.218.091-.777.337-1.447.99-1.87 1.843-.417.845-.533 1.767-.328 2.595zm.622.224c-.065-.015-.13-.03-.197-.053-.284-.795-.2-1.766.223-2.619.422-.853 1.144-1.508 1.947-1.765.059.04.108.076.162.125-.743.348-1.386.992-1.786 1.8-.407.811-.522 1.71-.349 2.512zm.588.056a1.643 1.643 0 01-.211-.004c-.203-.754-.1-1.627.286-2.408.387-.782 1.02-1.392 1.742-1.688.048.051.09.112.13.165-.645.368-1.195.958-1.557 1.679-.354.725-.49 1.519-.39 2.256zm.35-.028c-.01-.05-.012-.101-.017-.16.094.036.186.065.287.098a3.64 3.64 0 01-.27.062zm.794-.283a7.93 7.93 0 01-.822-.262c.004-.12.015-.244.033-.37.386.147.785.266 1.185.363a2.613 2.613 0 01-.396.269zm.69-.57a7.788 7.788 0 01-1.42-.418 2.7 2.7 0 01.101-.342 7.685 7.685 0 001.547.436c-.065.12-.14.227-.228.324zm.394-.65a7.296 7.296 0 01-1.584-.437c.022-.045.038-.088.06-.133.031-.063.062-.126.103-.184a7.17 7.17 0 001.537.409 1.739 1.739 0 01-.116.345zm.18-.688a6.525 6.525 0 01-1.405-.372c.071-.098.15-.2.23-.294.39.137.785.243 1.189.31.002.118-.002.239-.015.356zm-.028-.724c-.294-.05-.59-.13-.882-.219.103-.094.215-.185.329-.268.15.047.296.08.448.11l.018.054c.035.1.064.21.087.323z"/>
  </g>
  <g aria-label="Garn og tilbehør" style="line-height:1.25" font-size="2.202" font-family="Comfortaa" word-spacing="0" stroke-width=".062" font-weight="400">
    <path d="M1.042 10.381q-.21 0-.395-.058-.182-.057-.322-.16-.138-.105-.216-.239-.078-.136-.078-.291 0-.153.076-.287.078-.137.216-.24.14-.102.322-.16.184-.06.397-.06.187 0 .34.04.154.039.297.125.023.013.026.031.005.017-.005.034-.01.015-.032.022-.005.015-.026.023-.02.007-.049.005-.026-.001-.052-.016-.101-.064-.22-.094-.12-.031-.279-.031-.169 0-.317.048-.145.049-.257.133-.112.084-.177.194-.062.11-.062.233 0 .127.062.237.065.11.177.194.112.084.257.133.148.046.317.046.143 0 .27-.033.128-.034.242-.097.031-.02.065-.015.036.003.062.022.026.019.026.049 0 .014-.005.028-.005.01-.023.024-.133.088-.296.125-.164.035-.34.035zm.665-.212l-.197-.03v-.375h-.405q-.045 0-.073-.019-.029-.019-.029-.047t.029-.044q.028-.02.073-.02h.501q.044 0 .073.021.028.019.028.05zM2.634 10.372q-.2 0-.359-.067-.159-.07-.252-.187-.091-.117-.091-.265 0-.15.094-.267.096-.117.26-.184.163-.07.368-.07.206 0 .367.07.163.067.257.184.096.118.099.267l-.08.045q0 .134-.09.243-.085.106-.236.17-.148.061-.337.061zm.02-.13q.151 0 .268-.051.12-.05.187-.138.07-.09.07-.2 0-.112-.07-.2-.068-.087-.187-.138-.117-.052-.268-.052-.148 0-.267.052-.12.05-.19.139-.07.087-.07.2 0 .11.07.199.07.088.19.138.12.05.267.05zm.621.12q-.044 0-.072-.018-.029-.02-.029-.052v-.32l.05-.147.153.028v.439q0 .031-.029.052-.029.019-.073.019zM3.851 9.734q.008-.116.084-.207.078-.092.2-.144.124-.052.275-.052.12 0 .185.024t.049.07q-.01.029-.036.038-.024.01-.06.008l-.078-.004q-.146-.01-.26.022-.112.03-.18.094-.064.063-.064.15zm.016.629q-.047 0-.073-.019-.026-.019-.026-.052v-.88q0-.033.026-.051.026-.02.073-.02t.073.02q.026.018.026.052v.879q0 .033-.026.052-.026.019-.073.019zM6.18 10.363q-.045 0-.073-.02-.029-.021-.029-.051v-.485q0-.116-.062-.19-.06-.075-.166-.113-.104-.037-.237-.037-.127 0-.231.035-.101.036-.161.097-.06.062-.06.14h-.143q.005-.117.088-.209.084-.093.221-.145.138-.054.307-.054.184 0 .33.056.145.054.229.16.085.107.085.26v.485q0 .03-.028.05-.029.02-.07.02zm-1.118 0q-.047 0-.075-.019-.026-.02-.026-.052v-.877q0-.034.026-.053.028-.02.075-.02.044 0 .07.02.029.02.029.053v.877q0 .031-.029.052-.026.019-.07.019zM8.13 10.372q-.208 0-.371-.067-.164-.067-.258-.185-.093-.118-.093-.267 0-.151.093-.269.094-.117.258-.184.163-.067.371-.067t.37.067q.163.067.256.184.094.118.096.27 0 .148-.096.266-.093.118-.257.185-.161.067-.369.067zm0-.13q.15 0 .27-.051.12-.05.187-.138.068-.088.068-.2 0-.112-.068-.2-.067-.089-.187-.14-.12-.05-.27-.05-.15 0-.27.05-.12.05-.19.14-.067.088-.067.2 0 .112.067.2.07.088.19.138.12.05.27.05zM9.87 10.372q-.205 0-.363-.065-.159-.068-.25-.185-.088-.118-.088-.269 0-.153.093-.27.094-.118.258-.183.163-.067.371-.067.21 0 .372.067.163.065.254.183.094.117.096.27l-.116.045q0 .138-.081.246-.08.107-.224.168-.14.06-.322.06zm.026.394q-.205 0-.36-.056-.157-.054-.258-.15-.029-.022-.026-.048.005-.026.039-.043.034-.017.075-.011.042.005.065.028.076.067.192.108.12.041.276.041.145 0 .262-.05.117-.05.185-.142.07-.092.07-.215v-.283l.075-.109.122.017v.38q0 .152-.093.271-.094.122-.255.19-.16.072-.369.072zm-.005-.525q.153 0 .27-.048.12-.05.187-.138.068-.088.068-.202 0-.114-.068-.201-.067-.09-.187-.138-.117-.05-.27-.05-.153 0-.273.05-.12.048-.187.138-.067.087-.067.201 0 .114.067.202.068.087.187.138.12.048.273.048zM12.322 10.363q-.137 0-.246-.047-.107-.047-.17-.127-.062-.082-.062-.187V9.09q0-.032.026-.052.029-.02.073-.02t.073.02q.028.02.028.052v.912q0 .096.078.157.078.06.2.06h.07q.042 0 .068.02.026.021.026.053 0 .031-.031.052-.031.019-.078.019zm-.647-.859q-.039 0-.065-.017-.026-.018-.026-.044 0-.028.026-.045.026-.019.065-.019h.663q.039 0 .065.019.026.017.026.045 0 .026-.026.044-.026.017-.065.017zM12.955 10.363q-.047 0-.076-.019-.026-.02-.026-.054v-.875q0-.034.026-.053.029-.02.076-.02.044 0 .07.02.028.02.028.053v.875q0 .033-.028.054-.026.019-.07.019zm-.003-1.215q-.057 0-.099-.03-.041-.03-.041-.073 0-.046.041-.073.044-.028.102-.028.054 0 .096.028.044.027.044.073 0 .043-.042.073-.041.03-.101.03zM13.87 10.363q-.105 0-.188-.041-.08-.041-.127-.114-.044-.073-.044-.168V8.976q0-.032.026-.05.028-.02.073-.02.044 0 .07.02.028.018.028.05v1.064q0 .08.045.13.046.05.116.05h.065q.04 0 .063.021.023.019.023.05 0 .032-.034.053-.03.019-.083.019zM15.013 10.372q-.202 0-.366-.067-.161-.067-.257-.183-.094-.118-.096-.263v-.881q0-.034.026-.052.028-.02.075-.02.044 0 .07.02.029.018.029.052v.549q.085-.088.226-.14.143-.054.317-.054.2 0 .358.069.159.067.25.184.093.118.093.265 0 .15-.096.267-.093.118-.257.187-.164.067-.372.067zm0-.13q.151 0 .27-.051.12-.052.188-.14.07-.088.07-.2 0-.11-.07-.197-.068-.09-.187-.14-.12-.05-.27-.05-.149 0-.268.05-.12.05-.187.14-.068.087-.068.197 0 .112.068.2.067.088.187.14.12.05.267.05zM16.775 10.372q-.21 0-.374-.065-.161-.068-.255-.185-.09-.118-.09-.269 0-.153.085-.269.088-.117.242-.184.153-.067.353-.067.198 0 .343.065.148.063.229.177.08.114.08.26 0 .03-.026.048-.026.017-.067.017H16.19v-.12h1.126l-.112.058q.002-.108-.055-.194-.057-.086-.163-.134-.104-.049-.25-.049-.148 0-.26.05-.111.051-.174.14-.06.088-.06.202 0 .114.068.202.07.087.19.138.12.05.275.05.094 0 .187-.022.096-.024.153-.06.03-.017.065-.017.037-.002.063.013.034.023.034.049.002.026-.029.045-.086.052-.218.087-.133.034-.255.034zM18.943 10.363q-.044 0-.073-.02-.028-.021-.028-.051v-.485q0-.116-.063-.19-.06-.075-.166-.113-.104-.037-.237-.037-.127 0-.23.035-.102.036-.162.097-.06.062-.06.14h-.143q.006-.117.089-.209.083-.093.22-.145.138-.054.307-.054.185 0 .33.056.146.054.229.16.086.107.086.26v.485q0 .03-.029.05-.029.02-.07.02zm-1.117 0q-.047 0-.076-.019-.026-.02-.026-.052v-.877q0-.034.026-.053.029-.02.076-.02.044 0 .07.02.028.02.028.053v.877q0 .031-.028.052-.026.019-.07.019zm0-.416q-.047 0-.076-.021-.026-.02-.026-.052v-.896q0-.034.026-.052.029-.02.076-.02.044 0 .07.02.028.018.028.052v.896q0 .031-.028.052-.026.02-.07.02zM19.49 10.398q-.052 0-.075-.035-.02-.034.018-.062l.193-.138.083-.041.857-.614.055-.043.153-.108q.023-.019.06-.019.039 0 .057.019.02.017.02.04t-.02.038l-.166.118-.052.035-.86.614-.065.036-.2.143q-.024.017-.058.017zm.686-.022q-.207 0-.371-.067-.164-.068-.257-.185-.094-.118-.094-.267 0-.151.094-.269.093-.117.257-.185.164-.067.371-.067.208 0 .37.067.163.068.257.185.093.118.096.269 0 .15-.096.267-.094.117-.258.185-.16.067-.369.067zm0-.13q.151 0 .27-.051.12-.05.188-.138.067-.088.067-.2 0-.112-.067-.2-.068-.09-.187-.14-.12-.05-.27-.05-.151 0-.27.05-.12.05-.19.14-.068.088-.068.2 0 .112.067.2.07.087.19.138.12.05.27.05zM21.385 9.734q.008-.116.083-.207.078-.092.2-.144.125-.052.276-.052.12 0 .184.024.065.024.05.07-.01.029-.037.038-.023.01-.06.008l-.077-.004q-.146-.01-.26.022-.112.03-.18.094-.065.063-.065.15zm.016.629q-.047 0-.073-.019-.026-.019-.026-.052v-.88q0-.033.026-.051.026-.02.073-.02t.073.02q.025.018.025.052v.879q0 .033-.025.052-.026.019-.073.019z" style="-inkscape-font-specification:Comfortaa"/>
  </g>
</svg>
